<svg xmlns="http://www.w3.org/2000/svg" version="1.1" xmlns:xlink="http://www.w3.org/1999/xlink" xmlns:svgjs="http://svgjs.dev/svgjs" viewBox="0 0 20.475606867322504 11.752858174161812"><g transform="matrix(1,0,0,1,1.2827558262393772,9.405102347922433)"><g><path d=" M 0.34875 0.9959999999999999 Q 0.225 0.9269999999999998 0.15375 0.8054999999999999 Q 0.0825 0.6839999999999999 0.0825 0.5324999999999999 Q 0.0825 0.3809999999999999 0.15375 0.25949999999999984 Q 0.225 0.1379999999999999 0.34875 0.06899999999999984 Q 0.47250000000000003 -2.220446049250313e-16 0.627 -2.220446049250313e-16 Q 0.741 -2.220446049250313e-16 0.837 0.03674999999999984 Q 0.933 0.0734999999999999 1.0005 0.14549999999999985 L 0.9525 0.19499999999999984 Q 0.8265 0.0704999999999999 0.63 0.0704999999999999 Q 0.498 0.0704999999999999 0.39 0.13049999999999984 Q 0.28200000000000003 0.1904999999999999 0.2205 0.2962499999999999 Q 0.159 0.4019999999999999 0.159 0.5324999999999999 Q 0.159 0.6629999999999998 0.2205 0.7687499999999998 Q 0.28200000000000003 0.8744999999999998 0.39 0.9344999999999999 Q 0.498 0.9944999999999999 0.63 0.9944999999999999 Q 0.8250000000000001 0.9944999999999999 0.9525 0.8684999999999998 L 1.0005 0.9179999999999999 Q 0.933 0.9899999999999999 0.83625 1.0274999999999999 Q 0.7395 1.065 0.627 1.065 Q 0.47250000000000003 1.065 0.34875 0.9959999999999999 M 1.8780322265625 0.7619999999999999 L 1.2690322265625 0.7619999999999999 L 1.1355322265625 1.0574999999999999 L 1.0530322265625 1.0574999999999999 L 1.5360322265625 0.00749999999999984 L 1.6125322265625002 0.00749999999999984 L 2.0955322265625 1.0574999999999999 L 2.0130322265625002 1.0574999999999999 L 1.8780322265625 0.7619999999999999 M 1.8495322265625 0.6974999999999999 L 1.5735322265625 0.09149999999999991 L 1.2990322265625 0.6974999999999999 L 1.8495322265625 0.6974999999999999 M 3.015057861328125 1.0574999999999999 L 2.764557861328125 0.7064999999999999 Q 2.709057861328125 0.7139999999999999 2.662557861328125 0.7139999999999999 L 2.362557861328125 0.7139999999999999 L 2.362557861328125 1.0574999999999999 L 2.286057861328125 1.0574999999999999 L 2.286057861328125 0.00749999999999984 L 2.662557861328125 0.00749999999999984 Q 2.8605578613281253 0.00749999999999984 2.973057861328125 0.10124999999999984 Q 3.085557861328125 0.19499999999999984 3.085557861328125 0.3614999999999998 Q 3.085557861328125 0.4859999999999999 3.021807861328125 0.5707499999999999 Q 2.958057861328125 0.6554999999999999 2.839557861328125 0.69 L 3.102057861328125 1.0574999999999999 L 3.015057861328125 1.0574999999999999 M 2.662557861328125 0.6464999999999999 Q 2.830557861328125 0.6464999999999999 2.919057861328125 0.5722499999999999 Q 3.007557861328125 0.4979999999999999 3.007557861328125 0.3614999999999998 Q 3.007557861328125 0.22499999999999987 2.919057861328125 0.15074999999999983 Q 2.830557861328125 0.0764999999999999 2.662557861328125 0.0764999999999999 L 2.362557861328125 0.0764999999999999 L 2.362557861328125 0.6464999999999999 L 2.662557861328125 0.6464999999999999 M 4.090513916015625 0.9884999999999999 L 4.090513916015625 1.0574999999999999 L 3.366013916015625 1.0574999999999999 L 3.366013916015625 0.00749999999999984 L 4.068013916015625 0.00749999999999984 L 4.068013916015625 0.0764999999999999 L 3.442513916015625 0.0764999999999999 L 3.442513916015625 0.4904999999999998 L 4.002013916015625 0.4904999999999998 L 4.002013916015625 0.5579999999999998 L 3.442513916015625 0.5579999999999998 L 3.442513916015625 0.9884999999999999 L 4.090513916015625 0.9884999999999999 M 5.0940234375 0.9884999999999999 L 5.0940234375 1.0574999999999999 L 4.3695234375 1.0574999999999999 L 4.3695234375 0.00749999999999984 L 5.0715234375 0.00749999999999984 L 5.0715234375 0.0764999999999999 L 4.4460234375 0.0764999999999999 L 4.4460234375 0.4904999999999998 L 5.0055234375 0.4904999999999998 L 5.0055234375 0.5579999999999998 L 4.4460234375 0.5579999999999998 L 4.4460234375 0.9884999999999999 L 5.0940234375 0.9884999999999999 M 6.102032958984375 1.0574999999999999 L 5.851532958984375 0.7064999999999999 Q 5.796032958984375 0.7139999999999999 5.749532958984375 0.7139999999999999 L 5.449532958984375 0.7139999999999999 L 5.449532958984375 1.0574999999999999 L 5.373032958984375 1.0574999999999999 L 5.373032958984375 0.00749999999999984 L 5.749532958984375 0.00749999999999984 Q 5.947532958984375 0.00749999999999984 6.060032958984375 0.10124999999999984 Q 6.172532958984375 0.19499999999999984 6.172532958984375 0.3614999999999998 Q 6.172532958984375 0.4859999999999999 6.108782958984375 0.5707499999999999 Q 6.045032958984375 0.6554999999999999 5.926532958984375 0.69 L 6.189032958984375 1.0574999999999999 L 6.102032958984375 1.0574999999999999 M 5.749532958984375 0.6464999999999999 Q 5.917532958984375 0.6464999999999999 6.006032958984375 0.5722499999999999 Q 6.094532958984375 0.4979999999999999 6.094532958984375 0.3614999999999998 Q 6.094532958984375 0.22499999999999987 6.006032958984375 0.15074999999999983 Q 5.917532958984375 0.0764999999999999 5.749532958984375 0.0764999999999999 L 5.449532958984375 0.0764999999999999 L 5.449532958984375 0.6464999999999999 L 5.749532958984375 0.6464999999999999 M 7.139989013671875 0.10124999999999984 Q 7.252489013671875 0.19499999999999984 7.252489013671875 0.3614999999999998 Q 7.252489013671875 0.5264999999999999 7.139989013671875 0.6202499999999999 Q 7.027489013671875 0.7139999999999999 6.829489013671875 0.7139999999999999 L 6.529489013671875 0.7139999999999999 L 6.529489013671875 1.0574999999999999 L 6.452989013671875 1.0574999999999999 L 6.452989013671875 0.00749999999999984 L 6.829489013671875 0.00749999999999984 Q 7.027489013671875 0.00749999999999984 7.139989013671875 0.10124999999999984 M 7.085989013671875 0.5714999999999999 Q 7.174489013671875 0.4979999999999999 7.174489013671875 0.3614999999999998 Q 7.174489013671875 0.22499999999999987 7.085989013671875 0.15074999999999983 Q 6.997489013671875 0.0764999999999999 6.829489013671875 0.0764999999999999 L 6.529489013671875 0.0764999999999999 L 6.529489013671875 0.6449999999999998 L 6.829489013671875 0.6449999999999998 Q 6.997489013671875 0.6449999999999998 7.085989013671875 0.5714999999999999 M 8.107554931640625 0.7619999999999999 L 7.498554931640625 0.7619999999999999 L 7.365054931640625 1.0574999999999999 L 7.282554931640625 1.0574999999999999 L 7.765554931640625 0.00749999999999984 L 7.842054931640625 0.00749999999999984 L 8.325054931640626 1.0574999999999999 L 8.242554931640624 1.0574999999999999 L 8.107554931640625 0.7619999999999999 M 8.079054931640625 0.6974999999999999 L 7.8030549316406255 0.09149999999999991 L 7.528554931640625 0.6974999999999999 L 8.079054931640625 0.6974999999999999 M 8.664120849609375 0.0764999999999999 L 8.286120849609375 0.0764999999999999 L 8.286120849609375 0.00749999999999984 L 9.118620849609375 0.00749999999999984 L 9.118620849609375 0.0764999999999999 L 8.740620849609375 0.0764999999999999 L 8.740620849609375 1.0574999999999999 L 8.664120849609375 1.0574999999999999 L 8.664120849609375 0.0764999999999999 M 10.162603271484375 0.00749999999999984 L 10.162603271484375 1.0574999999999999 L 10.086103271484376 1.0574999999999999 L 10.086103271484376 0.5579999999999998 L 9.384103271484374 0.5579999999999998 L 9.384103271484374 1.0574999999999999 L 9.307603271484375 1.0574999999999999 L 9.307603271484375 0.00749999999999984 L 9.384103271484374 0.00749999999999984 L 9.384103271484374 0.4904999999999998 L 10.086103271484376 0.4904999999999998 L 10.086103271484376 0.00749999999999984 L 10.162603271484375 0.00749999999999984 M 11.115170654296875 0.0764999999999999 L 10.737170654296875 0.0764999999999999 L 10.737170654296875 0.00749999999999984 L 11.569670654296875 0.00749999999999984 L 11.569670654296875 0.0764999999999999 L 11.191670654296875 0.0764999999999999 L 11.191670654296875 1.0574999999999999 L 11.115170654296875 1.0574999999999999 L 11.115170654296875 0.0764999999999999 M 12.487653076171876 1.0574999999999999 L 12.237153076171875 0.7064999999999999 Q 12.181653076171875 0.7139999999999999 12.135153076171875 0.7139999999999999 L 11.835153076171874 0.7139999999999999 L 11.835153076171874 1.0574999999999999 L 11.758653076171875 1.0574999999999999 L 11.758653076171875 0.00749999999999984 L 12.135153076171875 0.00749999999999984 Q 12.333153076171875 0.00749999999999984 12.445653076171874 0.10124999999999984 Q 12.558153076171875 0.19499999999999984 12.558153076171875 0.3614999999999998 Q 12.558153076171875 0.4859999999999999 12.494403076171874 0.5707499999999999 Q 12.430653076171875 0.6554999999999999 12.312153076171874 0.69 L 12.574653076171876 1.0574999999999999 L 12.487653076171876 1.0574999999999999 M 12.135153076171875 0.6464999999999999 Q 12.303153076171874 0.6464999999999999 12.391653076171876 0.5722499999999999 Q 12.480153076171876 0.4979999999999999 12.480153076171876 0.3614999999999998 Q 12.480153076171876 0.22499999999999987 12.391653076171876 0.15074999999999983 Q 12.303153076171874 0.0764999999999999 12.135153076171875 0.0764999999999999 L 11.835153076171874 0.0764999999999999 L 11.835153076171874 0.6464999999999999 L 12.135153076171875 0.6464999999999999 M 13.488109130859375 0.7619999999999999 L 12.879109130859375 0.7619999999999999 L 12.745609130859375 1.0574999999999999 L 12.663109130859375 1.0574999999999999 L 13.146109130859376 0.00749999999999984 L 13.222609130859375 0.00749999999999984 L 13.705609130859376 1.0574999999999999 L 13.623109130859374 1.0574999999999999 L 13.488109130859375 0.7619999999999999 M 13.459609130859375 0.6974999999999999 L 13.183609130859375 0.09149999999999991 L 12.909109130859376 0.6974999999999999 L 13.459609130859375 0.6974999999999999 M 14.0468701171875 0.9959999999999999 Q 13.9231201171875 0.9269999999999998 13.8518701171875 0.8054999999999999 Q 13.7806201171875 0.6839999999999999 13.7806201171875 0.5324999999999999 Q 13.7806201171875 0.3809999999999999 13.8518701171875 0.25949999999999984 Q 13.9231201171875 0.1379999999999999 14.0468701171875 0.06899999999999984 Q 14.1706201171875 -2.220446049250313e-16 14.3251201171875 -2.220446049250313e-16 Q 14.4391201171875 -2.220446049250313e-16 14.5351201171875 0.03674999999999984 Q 14.6311201171875 0.0734999999999999 14.6986201171875 0.14549999999999985 L 14.6506201171875 0.19499999999999984 Q 14.5246201171875 0.0704999999999999 14.3281201171875 0.0704999999999999 Q 14.1961201171875 0.0704999999999999 14.0881201171875 0.13049999999999984 Q 13.9801201171875 0.1904999999999999 13.9186201171875 0.2962499999999999 Q 13.8571201171875 0.4019999999999999 13.8571201171875 0.5324999999999999 Q 13.8571201171875 0.6629999999999998 13.9186201171875 0.7687499999999998 Q 13.9801201171875 0.8744999999999998 14.0881201171875 0.9344999999999999 Q 14.1961201171875 0.9944999999999999 14.3281201171875 0.9944999999999999 Q 14.5231201171875 0.9944999999999999 14.6506201171875 0.8684999999999998 L 14.6986201171875 0.9179999999999999 Q 14.6311201171875 0.9899999999999999 14.5343701171875 1.0274999999999999 Q 14.4376201171875 1.065 14.3251201171875 1.065 Q 14.1706201171875 1.065 14.0468701171875 0.9959999999999999 M 15.267125244140624 0.5399999999999999 L 15.031625244140624 0.7814999999999999 L 15.031625244140624 1.0574999999999999 L 14.955125244140625 1.0574999999999999 L 14.955125244140625 0.00749999999999984 L 15.031625244140624 0.00749999999999984 L 15.031625244140624 0.6824999999999999 L 15.687125244140624 0.00749999999999984 L 15.780125244140624 0.00749999999999984 L 15.318125244140624 0.4844999999999998 L 15.811625244140625 1.0574999999999999 L 15.718625244140625 1.0574999999999999 L 15.267125244140624 0.5399999999999999 M 16.734129638671874 0.9884999999999999 L 16.734129638671874 1.0574999999999999 L 16.009629638671875 1.0574999999999999 L 16.009629638671875 0.00749999999999984 L 16.711629638671877 0.00749999999999984 L 16.711629638671877 0.0764999999999999 L 16.086129638671874 0.0764999999999999 L 16.086129638671874 0.4904999999999998 L 16.645629638671874 0.4904999999999998 L 16.645629638671874 0.5579999999999998 L 16.086129638671874 0.5579999999999998 L 16.086129638671874 0.9884999999999999 L 16.734129638671874 0.9884999999999999 M 17.74213916015625 1.0574999999999999 L 17.49163916015625 0.7064999999999999 Q 17.43613916015625 0.7139999999999999 17.38963916015625 0.7139999999999999 L 17.08963916015625 0.7139999999999999 L 17.08963916015625 1.0574999999999999 L 17.01313916015625 1.0574999999999999 L 17.01313916015625 0.00749999999999984 L 17.38963916015625 0.00749999999999984 Q 17.58763916015625 0.00749999999999984 17.70013916015625 0.10124999999999984 Q 17.81263916015625 0.19499999999999984 17.81263916015625 0.3614999999999998 Q 17.81263916015625 0.4859999999999999 17.74888916015625 0.5707499999999999 Q 17.68513916015625 0.6554999999999999 17.56663916015625 0.69 L 17.82913916015625 1.0574999999999999 L 17.74213916015625 1.0574999999999999 M 17.38963916015625 0.6464999999999999 Q 17.55763916015625 0.6464999999999999 17.64613916015625 0.5722499999999999 Q 17.73463916015625 0.4979999999999999 17.73463916015625 0.3614999999999998 Q 17.73463916015625 0.22499999999999987 17.64613916015625 0.15074999999999983 Q 17.55763916015625 0.0764999999999999 17.38963916015625 0.0764999999999999 L 17.08963916015625 0.0764999999999999 L 17.08963916015625 0.6464999999999999 L 17.38963916015625 0.6464999999999999" fill="#212245" fill-rule="nonzero"></path></g><g></g><g clip-path="url(#SvgjsClipPath1001)"><g clip-path="url(#bdb7519ad-3523-4314-8927-e4da5ba60a1e16cfa4d8-fa08-4d4d-88ca-2ae88eba743b)"><path d=" M 16.710346327548276 -5.260821729288859 C 16.710346327548276 -5.260821729288859 6.403191747547888 -11.074516552177748 1.199748887295474 -2.2310474029675627 L 1.6521199340422887 -2.446116057517324 L 1.1998557802649323 -2.2310474029675627 L 4.1201717058611 -2.2310474029675627 L 3.1567453721349557 -0.25 L 5.295032333175429 -2.878498118975468 L 2.543393513384194 -2.86983978844936 C 2.543393513384194 -2.86983978844936 5.366436836773466 -9.080535099905752 16.710346327548276 -5.260821729288859" fill="#64c6c4" transform="matrix(1,0,0,1,0,0)" fill-rule="nonzero"></path></g><g clip-path="url(#bdb7519ad-3523-4314-8927-e4da5ba60a1e16cfa4d8-fa08-4d4d-88ca-2ae88eba743b)"><path d=" M 8.773650238251426 -2.963050457816851 L 10.916319811039683 -2.963050457816851 L 10.916319811039683 -8.122346521683056 L 8.773650238251426 -7.4136461341756394 Z M 10.024832445758863 -3.615845822297664 L 10.025687589514526 -2.98656691109764 L 9.665030710562789 -2.9861393392198075 L 9.664282459776583 -3.6154182504198316 Z" fill="#64c6c4" transform="matrix(1,0,0,1,0,0)" fill-rule="nonzero"></path></g><g clip-path="url(#bdb7519ad-3523-4314-8927-e4da5ba60a1e16cfa4d8-fa08-4d4d-88ca-2ae88eba743b)"><path d=" M 9.845893614885947 -6.736265386719457 L 10.490458220718484 -6.736265386719457 L 9.708856828040622 -5.750819101284937 L 10.415526249128334 -5.754453462246514 L 9.534514394854408 -4.671200109757803 L 9.931301097482994 -5.487648610479016 L 9.155151246247497 -5.487648610479016 Z" fill="#212245" transform="matrix(1,0,0,1,0,0)" fill-rule="nonzero"></path></g><g clip-path="url(#bdb7519ad-3523-4314-8927-e4da5ba60a1e16cfa4d8-fa08-4d4d-88ca-2ae88eba743b)"><path d=" M 16.529590316194575 -2.9383581818720224 L 6.089888454066102 -2.9383581818720224 C 6.089888454066102 -2.9383581818720224 8.406045316284908 -3.508525280961699 16.529590316194575 -2.9383581818720224" fill="#64c6c4" transform="matrix(1,0,0,1,0,0)" fill-rule="nonzero"></path></g><g clip-path="url(#bdb7519ad-3523-4314-8927-e4da5ba60a1e16cfa4d8-fa08-4d4d-88ca-2ae88eba743b)"><path d=" M 15.173546105648711 -4.8591179500651975 L 15.173546105648711 -5.230464125962749 L 14.819195911895003 -5.230464125962749 L 14.651267056876277 -7.1742058825894235 L 14.18638953270286 -7.1742058825894235 L 14.018460677684136 -5.230464125962749 L 13.26561349379051 -5.230357232993291 L 13.097791531741242 -7.174205882589423 L 12.633020900537284 -7.174205882589423 L 12.465092045518558 -5.23035723299329 L 12.11074185176485 -5.23035723299329 L 12.11074185176485 -4.8591179500651975 L 11.907324530886026 -4.8591179500651975 L 11.907324530886026 -2.9383581818720224 L 15.376963426527537 -2.9383581818720224 L 15.376963426527537 -4.8591179500651975 Z M 12.685612241510686 -2.9862462321892655 L 12.684650204785562 -3.6155251433892897 L 13.045413976706758 -3.615952715267121 L 13.046055334523507 -2.986673804067098 Z M 13.124835453014152 -4.049510599389306 L 12.610680269920536 -4.049510599389306 L 12.610680269920536 -4.534804680729225 L 13.124835453014152 -4.534804680729225 Z M 14.164690259902859 -4.534804680729225 L 14.678845442996474 -4.534804680729225 L 14.678845442996474 -4.049510599389306 L 14.164690259902859 -4.049510599389306 Z M 14.238873980706805 -2.9862462321892655 L 14.238018836951138 -3.6155251433892897 L 14.598675715902877 -3.615952715267121 L 14.599423966689084 -2.986673804067098 Z" fill="#64c6c4" transform="matrix(1,0,0,1,0,0)" fill-rule="nonzero"></path></g><g clip-path="url(#bdb7519ad-3523-4314-8927-e4da5ba60a1e16cfa4d8-fa08-4d4d-88ca-2ae88eba743b)"><path d=" M 7.396120540844477 -4.290874924425768 L 7.396120540844477 -4.455703883330207 L 6.3249460939045345 -5.40320316460709 L 5.253557861025676 -4.455703883330207 L 5.253557861025676 -2.9384650748414805 L 8.161687988103619 -2.9383581818720224 L 8.161687988103619 -3.8094289899863405 L 7.619419954042515 -4.28905774394498 Z M 6.146541727878912 -2.9861393392198075 L 6.145793477092705 -3.6154182504198307 L 6.506343463074986 -3.615845822297663 L 6.507091713861192 -2.986566911097639 Z M 7.928340635776516 -3.264167952780408 L 7.4141854526829 -3.264167952780408 L 7.4141854526829 -3.7638925849971763 L 7.928340635776516 -3.7638925849971763 Z" fill="#64c6c4" transform="matrix(1,0,0,1,0,0)" fill-rule="nonzero"></path></g></g></g><defs><clipPath id="SvgjsClipPath1001"><path d=" M 1.199748887295474 -8.122346521683056 h 15.510597440252802 v 7.872346521683055 h -15.510597440252802 Z"></path></clipPath><clipPath id="bdb7519ad-3523-4314-8927-e4da5ba60a1e16cfa4d8-fa08-4d4d-88ca-2ae88eba743b"><path d=" M 1.0928559178373418 -8.229239491141188 L 16.81723929700641 -8.229239491141188 L 16.81723929700641 -0.14310703054186824 L 1.0928559178373418 -0.14310703054186824 Z"></path></clipPath></defs></svg>